<svg xmlns="http://www.w3.org/2000/svg" width="227.73" height="168.85" viewBox="0 0 227.73 168.85"><title>logo_type02</title><path d="M30.47,147.66a2.87,2.87,0,0,1,.7,1.95v19.24H26.43V154.12h-.87q-2.72,5.45-6.47,13.43a2,2,0,0,1-2,1.29h-2.8a2.07,2.07,0,0,1-2-1.24q-5.4-11.09-6.64-13.48H4.82v14.73H0V149.61a2.87,2.87,0,0,1,.7-1.95,2.17,2.17,0,0,1,1.69-.81H5.53a2.09,2.09,0,0,1,2,1.28q6.72,13.54,7.63,15.34h1l7.67-15.34a2.09,2.09,0,0,1,2-1.28h2.93A2.17,2.17,0,0,1,30.47,147.66Z"/><path d="M43,146.81v22H38.18v-22Z"/><path d="M69.06,168.76H52.37a2.16,2.16,0,0,1-1.69-.81A2.87,2.87,0,0,1,50,166V146.81h4.78v16.53l.66.76H69Z"/><path d="M77.6,160.68v2.66l.66.76H93.64v4.7H75.17a2.16,2.16,0,0,1-1.69-.81,2.87,2.87,0,0,1-.7-1.95V149.57a2.87,2.87,0,0,1,.7-1.95,2.16,2.16,0,0,1,1.69-.81h16.7a2.11,2.11,0,0,1,1.67.81,2.93,2.93,0,0,1,.68,1.95v7.6a2.84,2.84,0,0,1-.68,1.92,2.12,2.12,0,0,1-1.67.78H78.26Zm11.17-9.17H78.22l-.62.77v2.17l.66.82H88.78l.66-.86h0v-2.14Z"/><path d="M119.53,156a2.85,2.85,0,0,1,.7,1.94v8.09a2.85,2.85,0,0,1-.7,1.94,2.16,2.16,0,0,1-1.69.8H99.12v-4.7h15.67l.66-.76v-2.71l-.66-.76H101.14a2.16,2.16,0,0,1-1.69-.81,2.87,2.87,0,0,1-.7-1.95v-7.55a2.87,2.87,0,0,1,.7-1.95,2.16,2.16,0,0,1,1.69-.81h18.68v4.66H104.19l-.66.82v2.17l.66.77h13.65A2.17,2.17,0,0,1,119.53,156Z"/><path d="M147,146.81v21.95h-4.78v-8.12l-.7-.76H131l-.66.81v8.08h-4.78V146.81h4.78v7.6l.66.76h10.52l.7-.76v-7.6Z"/><path d="M173.16,147.62a2.93,2.93,0,0,1,.68,1.95V166a2.87,2.87,0,0,1-.7,1.95,2.16,2.16,0,0,1-1.69.81H154.79a2.16,2.16,0,0,1-1.69-.8,2.85,2.85,0,0,1-.7-1.94v-8a2.85,2.85,0,0,1,.7-1.94,2.17,2.17,0,0,1,1.69-.8h13.61l.66-.81,0-2.18-.7-.76H153v-4.7h18.47A2.11,2.11,0,0,1,173.16,147.62ZM157.84,164.1h10.56l.66-.76v-2.66l-.66-.76H157.84l-.66.76v2.66Z"/><path d="M202.21,168.76h-7.09l-8.7-8.95a3.15,3.15,0,0,1-.95-2.22q0-2.37,2.14-2.37h7.59l.66-.77v-2.17l-.66-.82H184.68l-.7.81v16.48h-4.74l0-19.19a2.87,2.87,0,0,1,.7-1.95,2.16,2.16,0,0,1,1.69-.81h16.66a2.16,2.16,0,0,1,1.69.81,2.87,2.87,0,0,1,.7,1.95v7.55a2.87,2.87,0,0,1-.7,1.95,2.16,2.16,0,0,1-1.69.81h-4.37v.95Q197.55,164.48,202.21,168.76Z"/><path d="M210.74,160.68v2.66l.66.76h15.38v4.7H208.31a2.16,2.16,0,0,1-1.69-.81,2.87,2.87,0,0,1-.7-1.95V149.57a2.87,2.87,0,0,1,.7-1.95,2.16,2.16,0,0,1,1.69-.81H225a2.11,2.11,0,0,1,1.67.81,2.93,2.93,0,0,1,.68,1.95v7.6a2.84,2.84,0,0,1-.68,1.92,2.12,2.12,0,0,1-1.67.78H211.4Zm11.17-9.17H211.36l-.62.77v2.17l.66.82h10.52l.66-.86h0v-2.14Z"/><path d="M193.25,0h-1.73A34.52,34.52,0,0,0,157,34.49v1.68l-.05,61a16.11,16.11,0,0,1-16.09,16.09h-1.73a16.11,16.11,0,0,1-16.09-16.09v-61h0V34.67A34.52,34.52,0,0,0,88.59.19H86.86A34.39,34.39,0,0,0,61.53,11.31,34.39,34.39,0,0,0,36.21.19H34.48a34.25,34.25,0,0,0-16.09,4V0H0V88.38H18.39V34.66A16.11,16.11,0,0,1,34.48,18.58h1.73A16.11,16.11,0,0,1,52.3,34.67V88.38H70.77V34.67A16.11,16.11,0,0,1,86.86,18.58h1.73a16.11,16.11,0,0,1,16.09,16.09V97.19a34.52,34.52,0,0,0,34.48,34.48h1.73a34.51,34.51,0,0,0,34.45-33.59l.08-63.58A16.11,16.11,0,0,1,191.52,18.4h1.73a16.11,16.11,0,0,1,16.09,16.09V97.19c0,.3,0,.59,0,.88h18.41c0-.29,0-.59,0-.88V34.49A34.52,34.52,0,0,0,193.25,0Z"/></svg>