<svg xmlns="http://www.w3.org/2000/svg" width="387.72" height="58.6" viewBox="0 0 387.72 58.6"><title>head_logo</title><path d="M168.52,10.68a3.2,3.2,0,0,1,.78,2.17V34.27H164V17.88h-1q-3,6.07-7.21,15a2.27,2.27,0,0,1-2.25,1.44h-3.12a2.3,2.3,0,0,1-2.2-1.38q-6-12.35-7.39-15H140v16.4h-5.32V12.85a3.2,3.2,0,0,1,.78-2.17,2.41,2.41,0,0,1,1.88-.9h3.44A2.33,2.33,0,0,1,143,11.21q7.48,15.07,8.49,17.08h1.1l8.54-17.08a2.33,2.33,0,0,1,2.25-1.43h3.26A2.41,2.41,0,0,1,168.52,10.68Z"/><path d="M182.43,9.73V34.22H177.1V9.73Z"/><path d="M211.49,34.17H192.89a2.41,2.41,0,0,1-1.88-.9,3.19,3.19,0,0,1-.78-2.17V9.73h5.32V28.14l.73.85h15.15Z"/><path d="M221,25.17v3l.73.85h17.13v5.24H218.28a2.41,2.41,0,0,1-1.88-.9,3.19,3.19,0,0,1-.78-2.17V12.8a3.19,3.19,0,0,1,.78-2.17,2.41,2.41,0,0,1,1.88-.9h18.59a2.34,2.34,0,0,1,1.86.9,3.25,3.25,0,0,1,.76,2.17v8.46a3.16,3.16,0,0,1-.76,2.14,2.36,2.36,0,0,1-1.85.87H221.72ZM233.43,15H221.68l-.69.86v2.41l.73.91h11.71l.73-1h0V15.81Z"/><path d="M267.68,20a3.18,3.18,0,0,1,.78,2.16v9a3.18,3.18,0,0,1-.78,2.16,2.41,2.41,0,0,1-1.88.9H245V29H262.4l.73-.85v-3l-.73-.85H247.2a2.41,2.41,0,0,1-1.88-.9,3.19,3.19,0,0,1-.78-2.17V12.8a3.19,3.19,0,0,1,.78-2.17,2.41,2.41,0,0,1,1.88-.9H268v5.18H250.6l-.73.91v2.41l.73.86h15.2A2.41,2.41,0,0,1,267.68,20Z"/><path d="M298.3,9.73V34.17H293v-9l-.78-.85H280.48l-.73.9v9h-5.32V9.73h5.32v8.46l.73.85h11.71l.78-.85V9.73Z"/><path d="M327.38,10.63a3.25,3.25,0,0,1,.76,2.17V31.15a3.2,3.2,0,0,1-.78,2.17,2.41,2.41,0,0,1-1.88.9H306.93a2.41,2.41,0,0,1-1.88-.9,3.17,3.17,0,0,1-.78-2.16v-9A3.18,3.18,0,0,1,305,20a2.41,2.41,0,0,1,1.88-.9h15.15l.73-.9,0-2.43-.78-.85H305V9.73h20.57A2.34,2.34,0,0,1,327.38,10.63ZM310.32,29h11.75l.73-.85v-3l-.73-.85H310.32l-.73.85v3Z"/><path d="M359.72,34.17h-7.9l-9.69-10a3.5,3.5,0,0,1-1.06-2.48q0-2.63,2.39-2.64h8.45l.73-.86V15.83l-.73-.91H340.21l-.78.9V34.17h-5.28l0-21.37a3.19,3.19,0,0,1,.78-2.17,2.41,2.41,0,0,1,1.88-.9h18.55a2.41,2.41,0,0,1,1.88.9A3.2,3.2,0,0,1,358,12.8v8.41a3.2,3.2,0,0,1-.78,2.17,2.41,2.41,0,0,1-1.88.9h-4.87v1.06Q354.53,29.41,359.72,34.17Z"/><path d="M369.22,25.17v3L370,29h17.13v5.24H366.51a2.41,2.41,0,0,1-1.88-.9,3.19,3.19,0,0,1-.78-2.17V12.8a3.19,3.19,0,0,1,.78-2.17,2.41,2.41,0,0,1,1.88-.9h18.59a2.34,2.34,0,0,1,1.86.9,3.25,3.25,0,0,1,.76,2.17v8.46A3.16,3.16,0,0,1,387,23.4a2.36,2.36,0,0,1-1.85.87H370ZM381.66,15H369.91l-.69.86v2.41l.73.91h11.71l.73-1h0V15.81Z"/><path d="M86,0h-.77A15.36,15.36,0,0,0,69.9,15.35l0,27.9a7.17,7.17,0,0,1-7.16,7.16h-.77a7.17,7.17,0,0,1-7.16-7.16V16.1h0v-.67A15.36,15.36,0,0,0,39.43.09h-.77A15.3,15.3,0,0,0,27.39,5,15.3,15.3,0,0,0,16.12.09h-.77A15.25,15.25,0,0,0,8.18,1.87V0H0V39.34H8.18V15.43a7.17,7.17,0,0,1,7.16-7.16h.77a7.17,7.17,0,0,1,7.16,7.16V39.34H31.5V15.43a7.17,7.17,0,0,1,7.16-7.16h.77a7.17,7.17,0,0,1,7.16,7.16V43.26A15.36,15.36,0,0,0,61.94,58.6h.77A15.36,15.36,0,0,0,78,43.65l0-28.3a7.17,7.17,0,0,1,7.16-7.16H86a7.17,7.17,0,0,1,7.16,7.16v27.9c0,.13,0,.26,0,.39h8.19c0-.13,0-.26,0-.39V15.35A15.36,15.36,0,0,0,86,0Z"/></svg>